<svg xmlns="http://www.w3.org/2000/svg" xmlns:xlink="http://www.w3.org/1999/xlink" width="1000" zoomAndPan="magnify" viewBox="0 0 750 749.999995" height="1000" preserveAspectRatio="xMidYMid meet" version="1.0"><defs><clipPath id="9005b51f39"><path d="M 192 159 L 558 159 L 558 599 L 192 599 Z M 192 159 " clip-rule="nonzero"/></clipPath><clipPath id="0ccce7e95c"><path d="M 361.554688 160.558594 C 386.53125 156.871094 420.144531 161.523438 452.113281 176.566406 C 484.527344 191.820312 515.960938 218.09375 535.171875 258.285156 C 542.230469 269.925781 550.382812 292.03125 554.460938 317.128906 C 558.605469 342.621094 558.839844 372.949219 548.085938 399.9375 C 543.703125 413.28125 538.035156 431.222656 522.632812 451.71875 L 522.375 452.058594 L 522.09375 452.378906 L 522.09375 452.382812 C 522.089844 452.386719 522.085938 452.390625 522.082031 452.398438 C 522.070312 452.410156 522.050781 452.429688 522.027344 452.457031 C 521.980469 452.511719 521.90625 452.597656 521.8125 452.707031 C 521.617188 452.929688 521.328125 453.261719 520.953125 453.699219 C 520.203125 454.570312 519.101562 455.847656 517.726562 457.464844 C 514.972656 460.699219 511.113281 465.277344 506.703125 470.65625 C 497.84375 481.457031 486.914062 495.28125 478.25 507.777344 C 469.375 520.578125 465.441406 527.09375 463.113281 531.882812 C 460.757812 536.71875 460.027344 539.6875 457.335938 547.332031 C 455.269531 553.199219 453.835938 560.476562 452.921875 566.613281 C 452.789062 567.488281 452.671875 568.332031 452.566406 569.128906 C 458.027344 571.378906 461.871094 576.753906 461.871094 583.027344 C 461.871094 591.324219 455.148438 598.050781 446.851562 598.050781 L 303.074219 598.050781 C 294.78125 598.050781 288.058594 591.324219 288.058594 583.027344 C 288.058594 577.792969 290.730469 573.1875 294.785156 570.496094 C 293.824219 563.335938 291.21875 553.550781 287.191406 543.023438 C 282.078125 529.652344 275.308594 516.765625 268.605469 508.445312 C 260.8125 498.765625 248.765625 483.503906 237.925781 469.113281 C 232.511719 461.925781 227.34375 454.886719 223.144531 448.839844 C 219.28125 443.277344 215.804688 437.949219 213.851562 434.015625 C 203.921875 417.203125 194.667969 388.121094 193.113281 354.832031 C 191.535156 321.027344 197.851562 281.863281 220.507812 245.988281 C 229.890625 231.128906 247.453125 210.007812 271.386719 192.496094 C 295.160156 175.097656 325.886719 160.796875 361.554688 160.558594 Z M 442.238281 197.574219 C 413.496094 184.050781 384.140625 180.507812 364.261719 183.628906 L 363.367188 183.765625 L 362.464844 183.765625 C 332.742188 183.765625 306.394531 195.636719 285.082031 211.230469 C 263.726562 226.859375 248.101562 245.75 240.125 258.386719 C 220.570312 289.351562 214.882812 323.523438 216.292969 353.75 C 217.691406 383.722656 226.023438 408.828125 233.652344 421.910156 L 234.015625 422.523438 L 234.304688 423.003906 L 234.542969 423.507812 C 235.507812 425.539062 238.078125 429.660156 242.199219 435.589844 C 246.160156 441.292969 251.128906 448.066406 256.457031 455.140625 C 267.105469 469.277344 278.988281 484.339844 286.671875 493.878906 C 295.445312 504.769531 303.261719 520.089844 308.859375 534.726562 C 312.671875 544.683594 315.761719 555.132812 317.316406 564.367188 L 429.800781 564.367188 C 429.855469 563.980469 429.914062 563.585938 429.972656 563.183594 C 430.96875 556.519531 432.660156 547.546875 435.453125 539.617188 C 437.617188 533.460938 439.121094 528.152344 442.25 521.722656 C 445.402344 515.238281 450.199219 507.5 459.183594 494.542969 C 468.378906 481.285156 479.769531 466.898438 488.765625 455.929688 C 493.285156 450.421875 497.238281 445.730469 500.0625 442.410156 C 501.476562 440.75 502.613281 439.429688 503.394531 438.523438 C 503.785156 438.070312 504.089844 437.71875 504.296875 437.480469 C 504.304688 437.46875 504.3125 437.460938 504.320312 437.453125 C 517.1875 420.226562 521.839844 405.484375 526.148438 392.367188 L 526.265625 392.003906 L 526.410156 391.652344 C 535.140625 369.984375 535.359375 344.21875 531.558594 320.855469 C 527.746094 297.394531 520.183594 278.117188 515.117188 269.96875 L 514.765625 269.40625 L 514.484375 268.808594 C 497.957031 233.902344 470.753906 210.992188 442.238281 197.574219 Z M 442.238281 197.574219 " clip-rule="nonzero"/></clipPath><linearGradient x1="368.17001" gradientTransform="matrix(0.773429, 0, 0, 0.77381, 90.242251, 58.12618)" y1="127.607968" x2="368.17001" gradientUnits="userSpaceOnUse" y2="697.749932" id="ef7bb040fa"><stop stop-opacity="1" stop-color="rgb(96.078491%, 96.078491%, 96.078491%)" offset="0"/><stop stop-opacity="1" stop-color="rgb(96.078491%, 96.078491%, 96.078491%)" offset="0.25"/><stop stop-opacity="1" stop-color="rgb(96.078491%, 96.078491%, 96.078491%)" offset="0.375"/><stop stop-opacity="1" stop-color="rgb(96.078491%, 96.078491%, 96.078491%)" offset="0.4375"/><stop stop-opacity="1" stop-color="rgb(96.078491%, 96.078491%, 96.078491%)" offset="0.46875"/><stop stop-opacity="1" stop-color="rgb(96.075439%, 95.970154%, 95.451355%)" offset="0.472656"/><stop stop-opacity="1" stop-color="rgb(96.073914%, 95.861816%, 94.824219%)" offset="0.476562"/><stop stop-opacity="1" stop-color="rgb(96.070862%, 95.748901%, 94.174194%)" offset="0.480469"/><stop stop-opacity="1" stop-color="rgb(96.06781%, 95.635986%, 93.525696%)" offset="0.484375"/><stop stop-opacity="1" stop-color="rgb(96.064758%, 95.523071%, 92.875671%)" offset="0.488281"/><stop stop-opacity="1" stop-color="rgb(96.061707%, 95.411682%, 92.227173%)" offset="0.492188"/><stop stop-opacity="1" stop-color="rgb(96.058655%, 95.298767%, 91.577148%)" offset="0.496094"/><stop stop-opacity="1" stop-color="rgb(96.057129%, 95.185852%, 90.92865%)" offset="0.5"/><stop stop-opacity="1" stop-color="rgb(96.054077%, 95.072937%, 90.280151%)" offset="0.503906"/><stop stop-opacity="1" stop-color="rgb(96.051025%, 94.961548%, 89.631653%)" offset="0.507812"/><stop stop-opacity="1" stop-color="rgb(96.047974%, 94.848633%, 88.981628%)" offset="0.511719"/><stop stop-opacity="1" stop-color="rgb(96.044922%, 94.735718%, 88.33313%)" offset="0.515625"/><stop stop-opacity="1" stop-color="rgb(96.04187%, 94.622803%, 87.683105%)" offset="0.519531"/><stop stop-opacity="1" stop-color="rgb(96.038818%, 94.511414%, 87.034607%)" offset="0.523438"/><stop stop-opacity="1" stop-color="rgb(96.035767%, 94.398499%, 86.384583%)" offset="0.527344"/><stop stop-opacity="1" stop-color="rgb(96.034241%, 94.285583%, 85.736084%)" offset="0.53125"/><stop stop-opacity="1" stop-color="rgb(96.031189%, 94.172668%, 85.08606%)" offset="0.535156"/><stop stop-opacity="1" stop-color="rgb(96.028137%, 94.061279%, 84.437561%)" offset="0.539063"/><stop stop-opacity="1" stop-color="rgb(96.025085%, 93.948364%, 83.787537%)" offset="0.542969"/><stop stop-opacity="1" stop-color="rgb(96.022034%, 93.835449%, 83.139038%)" offset="0.546875"/><stop stop-opacity="1" stop-color="rgb(96.018982%, 93.722534%, 82.489014%)" offset="0.550781"/><stop stop-opacity="1" stop-color="rgb(96.01593%, 93.611145%, 81.840515%)" offset="0.554688"/><stop stop-opacity="1" stop-color="rgb(96.012878%, 93.49823%, 81.192017%)" offset="0.558594"/><stop stop-opacity="1" stop-color="rgb(96.009827%, 93.385315%, 80.543518%)" offset="0.5625"/><stop stop-opacity="1" stop-color="rgb(96.006775%, 93.2724%, 79.893494%)" offset="0.566406"/><stop stop-opacity="1" stop-color="rgb(96.005249%, 93.161011%, 79.244995%)" offset="0.570313"/><stop stop-opacity="1" stop-color="rgb(96.002197%, 93.048096%, 78.594971%)" offset="0.574219"/><stop stop-opacity="1" stop-color="rgb(95.999146%, 92.935181%, 77.946472%)" offset="0.578125"/><stop stop-opacity="1" stop-color="rgb(95.996094%, 92.822266%, 77.296448%)" offset="0.582031"/><stop stop-opacity="1" stop-color="rgb(95.993042%, 92.709351%, 76.647949%)" offset="0.585938"/><stop stop-opacity="1" stop-color="rgb(95.98999%, 92.596436%, 75.997925%)" offset="0.589844"/><stop stop-opacity="1" stop-color="rgb(95.986938%, 92.485046%, 75.349426%)" offset="0.59375"/><stop stop-opacity="1" stop-color="rgb(95.983887%, 92.372131%, 74.699402%)" offset="0.597656"/><stop stop-opacity="1" stop-color="rgb(95.982361%, 92.259216%, 74.050903%)" offset="0.601563"/><stop stop-opacity="1" stop-color="rgb(95.979309%, 92.146301%, 73.402405%)" offset="0.605469"/><stop stop-opacity="1" stop-color="rgb(95.976257%, 92.034912%, 72.753906%)" offset="0.609375"/><stop stop-opacity="1" stop-color="rgb(95.973206%, 91.921997%, 72.103882%)" offset="0.613281"/><stop stop-opacity="1" stop-color="rgb(95.970154%, 91.809082%, 71.455383%)" offset="0.617188"/><stop stop-opacity="1" stop-color="rgb(95.967102%, 91.696167%, 70.805359%)" offset="0.621094"/><stop stop-opacity="1" stop-color="rgb(95.96405%, 91.584778%, 70.15686%)" offset="0.625"/><stop stop-opacity="1" stop-color="rgb(95.960999%, 91.471863%, 69.506836%)" offset="0.628906"/><stop stop-opacity="1" stop-color="rgb(95.959473%, 91.358948%, 68.858337%)" offset="0.632813"/><stop stop-opacity="1" stop-color="rgb(95.956421%, 91.246033%, 68.208313%)" offset="0.636719"/><stop stop-opacity="1" stop-color="rgb(95.953369%, 91.134644%, 67.559814%)" offset="0.640625"/><stop stop-opacity="1" stop-color="rgb(95.950317%, 91.021729%, 66.90979%)" offset="0.644531"/><stop stop-opacity="1" stop-color="rgb(95.947266%, 90.908813%, 66.261292%)" offset="0.648438"/><stop stop-opacity="1" stop-color="rgb(95.944214%, 90.795898%, 65.612793%)" offset="0.652344"/><stop stop-opacity="1" stop-color="rgb(95.941162%, 90.684509%, 64.964294%)" offset="0.65625"/><stop stop-opacity="1" stop-color="rgb(95.93811%, 90.571594%, 64.31427%)" offset="0.660156"/><stop stop-opacity="1" stop-color="rgb(95.936584%, 90.458679%, 63.665771%)" offset="0.664063"/><stop stop-opacity="1" stop-color="rgb(95.933533%, 90.345764%, 63.015747%)" offset="0.667969"/><stop stop-opacity="1" stop-color="rgb(95.930481%, 90.234375%, 62.367249%)" offset="0.671875"/><stop stop-opacity="1" stop-color="rgb(95.927429%, 90.12146%, 61.717224%)" offset="0.675781"/><stop stop-opacity="1" stop-color="rgb(95.924377%, 90.008545%, 61.068726%)" offset="0.679688"/><stop stop-opacity="1" stop-color="rgb(95.921326%, 89.89563%, 60.418701%)" offset="0.683594"/><stop stop-opacity="1" stop-color="rgb(95.918274%, 89.784241%, 59.770203%)" offset="0.6875"/><stop stop-opacity="1" stop-color="rgb(95.915222%, 89.671326%, 59.120178%)" offset="0.691406"/><stop stop-opacity="1" stop-color="rgb(95.913696%, 89.558411%, 58.47168%)" offset="0.695313"/><stop stop-opacity="1" stop-color="rgb(95.910645%, 89.445496%, 57.823181%)" offset="0.699219"/><stop stop-opacity="1" stop-color="rgb(95.907593%, 89.334106%, 57.174683%)" offset="0.703125"/><stop stop-opacity="1" stop-color="rgb(95.904541%, 89.221191%, 56.524658%)" offset="0.707031"/><stop stop-opacity="1" stop-color="rgb(95.901489%, 89.108276%, 55.87616%)" offset="0.710938"/><stop stop-opacity="1" stop-color="rgb(95.898438%, 88.995361%, 55.226135%)" offset="0.714844"/><stop stop-opacity="1" stop-color="rgb(95.895386%, 88.882446%, 54.577637%)" offset="0.71875"/><stop stop-opacity="1" stop-color="rgb(95.892334%, 88.769531%, 53.927612%)" offset="0.722656"/><stop stop-opacity="1" stop-color="rgb(95.890808%, 88.658142%, 53.279114%)" offset="0.726563"/><stop stop-opacity="1" stop-color="rgb(95.887756%, 88.545227%, 52.629089%)" offset="0.730469"/><stop stop-opacity="1" stop-color="rgb(95.884705%, 88.432312%, 51.980591%)" offset="0.734375"/><stop stop-opacity="1" stop-color="rgb(95.881653%, 88.319397%, 51.330566%)" offset="0.738281"/><stop stop-opacity="1" stop-color="rgb(95.878601%, 88.208008%, 50.682068%)" offset="0.742188"/><stop stop-opacity="1" stop-color="rgb(95.875549%, 88.095093%, 50.032043%)" offset="0.746094"/><stop stop-opacity="1" stop-color="rgb(95.872498%, 87.982178%, 49.383545%)" offset="0.75"/><stop stop-opacity="1" stop-color="rgb(95.869446%, 87.869263%, 48.735046%)" offset="0.753906"/><stop stop-opacity="1" stop-color="rgb(95.866394%, 87.757874%, 48.086548%)" offset="0.757813"/><stop stop-opacity="1" stop-color="rgb(95.863342%, 87.644958%, 47.436523%)" offset="0.761719"/><stop stop-opacity="1" stop-color="rgb(95.861816%, 87.532043%, 46.788025%)" offset="0.765625"/><stop stop-opacity="1" stop-color="rgb(95.858765%, 87.419128%, 46.138%)" offset="0.769531"/><stop stop-opacity="1" stop-color="rgb(95.855713%, 87.307739%, 45.489502%)" offset="0.773438"/><stop stop-opacity="1" stop-color="rgb(95.852661%, 87.194824%, 44.839478%)" offset="0.777344"/><stop stop-opacity="1" stop-color="rgb(95.849609%, 87.081909%, 44.190979%)" offset="0.78125"/><stop stop-opacity="1" stop-color="rgb(95.846558%, 86.968994%, 43.540955%)" offset="0.785156"/><stop stop-opacity="1" stop-color="rgb(95.843506%, 86.857605%, 42.892456%)" offset="0.789063"/><stop stop-opacity="1" stop-color="rgb(95.840454%, 86.74469%, 42.242432%)" offset="0.792969"/><stop stop-opacity="1" stop-color="rgb(95.838928%, 86.631775%, 41.593933%)" offset="0.796875"/><stop stop-opacity="1" stop-color="rgb(95.835876%, 86.51886%, 40.945435%)" offset="0.800781"/><stop stop-opacity="1" stop-color="rgb(95.832825%, 86.407471%, 40.296936%)" offset="0.804688"/><stop stop-opacity="1" stop-color="rgb(95.829773%, 86.294556%, 39.646912%)" offset="0.808594"/><stop stop-opacity="1" stop-color="rgb(95.826721%, 86.181641%, 38.998413%)" offset="0.8125"/><stop stop-opacity="1" stop-color="rgb(95.823669%, 86.068726%, 38.348389%)" offset="0.816406"/><stop stop-opacity="1" stop-color="rgb(95.820618%, 85.957336%, 37.69989%)" offset="0.820313"/><stop stop-opacity="1" stop-color="rgb(95.817566%, 85.844421%, 37.049866%)" offset="0.824219"/><stop stop-opacity="1" stop-color="rgb(95.81604%, 85.731506%, 36.401367%)" offset="0.828125"/><stop stop-opacity="1" stop-color="rgb(95.812988%, 85.618591%, 35.751343%)" offset="0.832031"/><stop stop-opacity="1" stop-color="rgb(95.809937%, 85.507202%, 35.102844%)" offset="0.835938"/><stop stop-opacity="1" stop-color="rgb(95.806885%, 85.394287%, 34.45282%)" offset="0.839844"/><stop stop-opacity="1" stop-color="rgb(95.803833%, 85.281372%, 33.804321%)" offset="0.84375"/><stop stop-opacity="1" stop-color="rgb(95.800781%, 85.168457%, 33.155823%)" offset="0.847656"/><stop stop-opacity="1" stop-color="rgb(95.797729%, 85.057068%, 32.507324%)" offset="0.851563"/><stop stop-opacity="1" stop-color="rgb(95.794678%, 84.944153%, 31.8573%)" offset="0.855469"/><stop stop-opacity="1" stop-color="rgb(95.793152%, 84.831238%, 31.208801%)" offset="0.859375"/><stop stop-opacity="1" stop-color="rgb(95.7901%, 84.718323%, 30.558777%)" offset="0.863281"/><stop stop-opacity="1" stop-color="rgb(95.787048%, 84.605408%, 29.910278%)" offset="0.867188"/><stop stop-opacity="1" stop-color="rgb(95.783997%, 84.492493%, 29.260254%)" offset="0.871094"/><stop stop-opacity="1" stop-color="rgb(95.780945%, 84.381104%, 28.611755%)" offset="0.875"/><stop stop-opacity="1" stop-color="rgb(95.777893%, 84.268188%, 27.961731%)" offset="0.878906"/><stop stop-opacity="1" stop-color="rgb(95.774841%, 84.155273%, 27.313232%)" offset="0.882813"/><stop stop-opacity="1" stop-color="rgb(95.77179%, 84.042358%, 26.663208%)" offset="0.886719"/><stop stop-opacity="1" stop-color="rgb(95.770264%, 83.930969%, 26.014709%)" offset="0.890625"/><stop stop-opacity="1" stop-color="rgb(95.767212%, 83.818054%, 25.364685%)" offset="0.894531"/><stop stop-opacity="1" stop-color="rgb(95.76416%, 83.705139%, 24.716187%)" offset="0.898438"/><stop stop-opacity="1" stop-color="rgb(95.761108%, 83.592224%, 24.067688%)" offset="0.902344"/><stop stop-opacity="1" stop-color="rgb(95.758057%, 83.480835%, 23.419189%)" offset="0.90625"/><stop stop-opacity="1" stop-color="rgb(95.755005%, 83.36792%, 22.769165%)" offset="0.910156"/><stop stop-opacity="1" stop-color="rgb(95.751953%, 83.255005%, 22.120667%)" offset="0.914063"/><stop stop-opacity="1" stop-color="rgb(95.748901%, 83.14209%, 21.470642%)" offset="0.917969"/><stop stop-opacity="1" stop-color="rgb(95.747375%, 83.030701%, 20.822144%)" offset="0.921875"/><stop stop-opacity="1" stop-color="rgb(95.744324%, 82.917786%, 20.172119%)" offset="0.925781"/><stop stop-opacity="1" stop-color="rgb(95.741272%, 82.804871%, 19.523621%)" offset="0.929688"/><stop stop-opacity="1" stop-color="rgb(95.73822%, 82.691956%, 18.873596%)" offset="0.933594"/><stop stop-opacity="1" stop-color="rgb(95.735168%, 82.580566%, 18.225098%)" offset="0.9375"/><stop stop-opacity="1" stop-color="rgb(95.732117%, 82.467651%, 17.575073%)" offset="0.941406"/><stop stop-opacity="1" stop-color="rgb(95.729065%, 82.354736%, 16.926575%)" offset="0.945313"/><stop stop-opacity="1" stop-color="rgb(95.726013%, 82.241821%, 16.278076%)" offset="0.949219"/><stop stop-opacity="1" stop-color="rgb(95.722961%, 82.130432%, 15.629578%)" offset="0.953125"/><stop stop-opacity="1" stop-color="rgb(95.71991%, 82.017517%, 14.979553%)" offset="0.957031"/><stop stop-opacity="1" stop-color="rgb(95.718384%, 81.904602%, 14.331055%)" offset="0.960938"/><stop stop-opacity="1" stop-color="rgb(95.715332%, 81.791687%, 13.68103%)" offset="0.964844"/><stop stop-opacity="1" stop-color="rgb(95.71228%, 81.680298%, 13.032532%)" offset="0.96875"/><stop stop-opacity="1" stop-color="rgb(95.709229%, 81.567383%, 12.382507%)" offset="0.972656"/><stop stop-opacity="1" stop-color="rgb(95.706177%, 81.454468%, 11.734009%)" offset="0.976563"/><stop stop-opacity="1" stop-color="rgb(95.703125%, 81.341553%, 11.083984%)" offset="0.980469"/><stop stop-opacity="1" stop-color="rgb(95.700073%, 81.230164%, 10.435486%)" offset="0.984375"/><stop stop-opacity="1" stop-color="rgb(95.697021%, 81.117249%, 9.785461%)" offset="0.988281"/><stop stop-opacity="1" stop-color="rgb(95.695496%, 81.004333%, 9.136963%)" offset="0.992188"/><stop stop-opacity="1" stop-color="rgb(95.692444%, 80.891418%, 8.488464%)" offset="0.996094"/><stop stop-opacity="1" stop-color="rgb(95.689392%, 80.778503%, 7.839966%)" offset="1"/></linearGradient><clipPath id="7a79e17f4a"><path d="M 288 641 L 462 641 L 462 691.875 L 288 691.875 Z M 288 641 " clip-rule="nonzero"/></clipPath><clipPath id="34f350d507"><path d="M 90.238281 58.125 L 659.488281 58.125 L 659.488281 691.875 L 90.238281 691.875 Z M 90.238281 58.125 " clip-rule="nonzero"/></clipPath><clipPath id="a74341ca59"><path d="M 90.238281 343 L 352 343 L 352 642 L 90.238281 642 Z M 90.238281 343 " clip-rule="nonzero"/></clipPath><clipPath id="21f69e2997"><path d="M 397 342 L 659.488281 342 L 659.488281 640 L 397 640 Z M 397 342 " clip-rule="nonzero"/></clipPath><clipPath id="cec5fbeb8d"><path d="M 90.238281 212 L 308 212 L 308 478 L 90.238281 478 Z M 90.238281 212 " clip-rule="nonzero"/></clipPath><clipPath id="c87914684d"><path d="M 441 210 L 659.488281 210 L 659.488281 476 L 441 476 Z M 441 210 " clip-rule="nonzero"/></clipPath><clipPath id="04ce92bd2b"><path d="M 90.238281 58.125 L 355 58.125 L 355 347 L 90.238281 347 Z M 90.238281 58.125 " clip-rule="nonzero"/></clipPath><clipPath id="8c0dcce600"><path d="M 398 58.125 L 659.488281 58.125 L 659.488281 347 L 398 347 Z M 398 58.125 " clip-rule="nonzero"/></clipPath><clipPath id="514c11e484"><path d="M 363 58.125 L 388 58.125 L 388 158 L 363 158 Z M 363 58.125 " clip-rule="nonzero"/></clipPath></defs><g clip-path="url(#9005b51f39)"><g clip-path="url(#0ccce7e95c)"><path fill="url(#ef7bb040fa)" d="M 191.535156 156.871094 L 191.535156 598.050781 L 558.839844 598.050781 L 558.839844 156.871094 Z M 191.535156 156.871094 " fill-rule="nonzero"/></g></g><path fill="#f5f5f5" d="M 303.074219 604.796875 L 446.855469 604.796875 C 447.839844 604.796875 448.816406 604.894531 449.785156 605.085938 C 450.75 605.277344 451.691406 605.5625 452.601562 605.941406 C 453.511719 606.316406 454.378906 606.78125 455.195312 607.328125 C 456.015625 607.878906 456.777344 608.5 457.472656 609.199219 C 458.167969 609.894531 458.792969 610.652344 459.339844 611.472656 C 459.886719 612.292969 460.351562 613.160156 460.726562 614.070312 C 461.105469 614.984375 461.390625 615.921875 461.582031 616.890625 C 461.773438 617.859375 461.871094 618.835938 461.871094 619.820312 C 461.871094 620.808594 461.773438 621.785156 461.582031 622.753906 C 461.390625 623.71875 461.105469 624.660156 460.726562 625.570312 C 460.351562 626.480469 459.886719 627.347656 459.339844 628.167969 C 458.792969 628.988281 458.167969 629.746094 457.472656 630.445312 C 456.777344 631.144531 456.015625 631.765625 455.195312 632.3125 C 454.378906 632.863281 453.511719 633.324219 452.601562 633.703125 C 451.691406 634.078125 450.75 634.363281 449.785156 634.558594 C 448.816406 634.75 447.839844 634.84375 446.855469 634.84375 L 303.074219 634.84375 C 302.085938 634.84375 301.109375 634.75 300.144531 634.558594 C 299.175781 634.363281 298.238281 634.078125 297.328125 633.703125 C 296.414062 633.324219 295.550781 632.863281 294.730469 632.3125 C 293.910156 631.765625 293.152344 631.144531 292.457031 630.445312 C 291.757812 629.746094 291.136719 628.988281 290.585938 628.167969 C 290.039062 627.347656 289.578125 626.480469 289.199219 625.570312 C 288.824219 624.660156 288.539062 623.71875 288.34375 622.753906 C 288.152344 621.785156 288.058594 620.808594 288.058594 619.820312 C 288.058594 618.835938 288.152344 617.859375 288.34375 616.890625 C 288.539062 615.921875 288.824219 614.984375 289.199219 614.070312 C 289.578125 613.160156 290.039062 612.292969 290.585938 611.472656 C 291.136719 610.652344 291.757812 609.894531 292.457031 609.199219 C 293.152344 608.5 293.910156 607.878906 294.730469 607.328125 C 295.550781 606.78125 296.414062 606.316406 297.328125 605.941406 C 298.238281 605.5625 299.175781 605.277344 300.144531 605.085938 C 301.109375 604.894531 302.085938 604.796875 303.074219 604.796875 Z M 303.074219 604.796875 " fill-opacity="1" fill-rule="nonzero"/><g clip-path="url(#7a79e17f4a)"><path fill="#f5f5f5" d="M 446.851562 641.589844 C 455.148438 641.589844 461.871094 648.316406 461.871094 656.613281 C 461.871094 664.914062 455.148438 671.640625 446.851562 671.640625 L 404.394531 671.640625 C 404.992188 673.265625 405.320312 675.019531 405.320312 676.851562 C 405.320312 685.148438 398.597656 691.875 390.304688 691.875 L 359.621094 691.875 C 351.328125 691.875 344.605469 685.148438 344.605469 676.851562 C 344.605469 675.019531 344.933594 673.265625 345.535156 671.640625 L 303.074219 671.640625 C 294.78125 671.640625 288.058594 664.914062 288.058594 656.613281 C 288.058594 648.316406 294.78125 641.589844 303.074219 641.589844 Z M 446.851562 641.589844 " fill-opacity="1" fill-rule="nonzero"/></g><g clip-path="url(#34f350d507)"><path stroke-linecap="butt" transform="matrix(0.773429, 0, 0, 0.773809, 90.242247, 58.12616)" fill="none" stroke-linejoin="miter" d="M 523.000619 368.997792 C 523.000619 371.536975 522.934961 374.07111 522.813748 376.605245 C 522.687484 379.139379 522.500613 381.668466 522.253136 384.192505 C 522.005658 386.716543 521.692523 389.235534 521.323833 391.744428 C 520.950091 394.253322 520.515743 396.75212 520.020788 399.240822 C 519.525833 401.724476 518.970271 404.203082 518.354103 406.661496 C 517.737935 409.124957 517.061159 411.568227 516.323778 413.996352 C 515.586396 416.419429 514.793458 418.827361 513.939913 421.22015 C 513.081318 423.60789 512.172217 425.970391 511.202509 428.317746 C 510.227751 430.660054 509.202487 432.977122 508.116617 435.268949 C 507.030746 437.565824 505.89437 439.827362 504.697387 442.068708 C 503.500404 444.305007 502.252916 446.511016 500.944821 448.686737 C 499.641776 450.862459 498.288226 453.002843 496.87912 455.11294 C 495.464963 457.223036 494.005351 459.297795 492.495233 461.332171 C 490.985115 463.371594 489.424492 465.370632 487.813363 467.329286 C 486.207285 469.292988 484.550701 471.211257 482.848662 473.089142 C 481.141573 474.972075 479.394079 476.809575 477.60113 478.601642 C 475.808181 480.39371 473.969777 482.145392 472.090968 483.846594 C 470.21216 485.552844 468.292947 487.208614 466.328279 488.81895 C 464.368661 490.424239 462.368639 491.984095 460.333263 493.498518 C 458.292837 495.007893 456.222107 496.466787 454.110973 497.875201 C 452.004889 499.288662 449.858401 500.641547 447.68666 501.948999 C 445.509868 503.251403 443.302773 504.503326 441.065375 505.69972 C 438.827977 506.891066 436.565326 508.031932 434.272371 509.117268 C 431.979417 510.202605 429.656159 511.232413 427.312699 512.201643 C 424.969239 513.170874 422.605576 514.084576 420.216661 514.937701 C 417.827746 515.795874 415.418629 516.588422 412.99436 517.325442 C 410.56504 518.062461 408.120569 518.738903 405.660946 519.354769 C 403.201323 519.970634 400.726548 520.525922 398.236622 521.020634 C 395.751746 521.515346 393.251718 521.94948 390.74159 522.323038 C 388.231461 522.696596 385.716282 523.004528 383.191002 523.251884 C 380.665722 523.504288 378.140441 523.691067 375.60506 523.812221 C 373.069678 523.938423 370.534297 523.999 367.998916 523.999 C 365.463534 523.999 362.928153 523.938423 360.392771 523.812221 C 357.85739 523.691067 355.33211 523.504288 352.80683 523.251884 C 350.281549 523.004528 347.76637 522.696596 345.256242 522.323038 C 342.746113 521.94948 340.246086 521.515346 337.76121 521.020634 C 335.271283 520.525922 332.796509 519.970634 330.336886 519.354769 C 327.877263 518.738903 325.432791 518.062461 323.003472 517.325442 C 320.579203 516.588422 318.170085 515.795874 315.78117 514.937701 C 313.392255 514.084576 311.028593 513.170874 308.685133 512.201643 C 306.341673 511.232413 304.023465 510.202605 301.72546 509.117268 C 299.432506 508.031932 297.169855 506.891066 294.932456 505.69972 C 292.695058 504.503326 290.487963 503.251403 288.311171 501.948999 C 286.13943 500.641547 283.992942 499.288662 281.886858 497.875201 C 279.775724 496.466787 277.704994 495.007893 275.664568 493.498518 C 273.629192 491.984095 271.62917 490.424239 269.669553 488.81895 C 267.704884 487.208614 265.785671 485.552844 263.906863 483.846594 C 262.028054 482.145392 260.18965 480.39371 258.396701 478.601642 C 256.603752 476.809575 254.856258 474.972075 253.149169 473.089142 C 251.44713 471.211257 249.790546 469.292988 248.184468 467.329286 C 246.573339 465.370632 245.012716 463.371594 243.502598 461.332171 C 241.992481 459.297795 240.532869 457.223036 239.118712 455.11294 C 237.709605 453.002843 236.356055 450.862459 235.053011 448.686737 C 233.744915 446.511016 232.497427 444.305007 231.300444 442.068708 C 230.103461 439.827362 228.967085 437.565824 227.881215 435.268949 C 226.795344 432.977122 225.77008 430.660054 224.795322 428.317746 C 223.825614 425.970391 222.916514 423.60789 222.057918 421.22015 C 221.204374 418.827361 220.411436 416.419429 219.674054 413.996352 C 218.936672 411.568227 218.259897 409.124957 217.643728 406.661496 C 217.02756 404.203082 216.471998 401.724476 215.977043 399.240822 C 215.482088 396.75212 215.04774 394.253322 214.679049 391.744428 C 214.305308 389.235534 213.992173 386.716543 213.744696 384.192505 C 213.497218 381.668466 213.310347 379.139379 213.184083 376.605245 C 213.06287 374.07111 212.997213 371.536975 212.997213 368.997792 C 212.997213 366.463658 213.06287 363.929523 213.184083 361.395388 C 213.310347 358.861254 213.497218 356.332167 213.744696 353.808129 C 213.992173 351.28409 214.305308 348.7651 214.679049 346.256205 C 215.04774 343.747311 215.482088 341.248513 215.977043 338.759811 C 216.471998 336.271109 217.02756 333.797551 217.643728 331.339137 C 218.259897 328.875676 218.936672 326.432406 219.674054 324.004281 C 220.411436 321.576156 221.204374 319.168224 222.057918 316.780483 C 222.916514 314.392743 223.825614 312.025194 224.795322 309.682887 C 225.77008 307.340579 226.795344 305.023512 227.881215 302.726636 C 228.967085 300.434809 230.103461 298.168223 231.300444 295.931925 C 232.497427 293.695627 233.744915 291.489617 235.053011 289.313896 C 236.356055 287.138174 237.709605 284.99779 239.118712 282.887694 C 240.532869 280.777597 241.992481 278.702838 243.502598 276.668463 C 245.012716 274.629039 246.573339 272.630001 248.184468 270.671347 C 249.790546 268.707645 251.44713 266.789376 253.149169 264.906443 C 254.856258 263.028558 256.603752 261.191058 258.396701 259.398991 C 260.18965 257.606923 262.028054 255.855241 263.906863 254.154039 C 265.785671 252.447789 267.704884 250.792019 269.669553 249.181683 C 271.62917 247.576394 273.629192 246.01149 275.664568 244.502115 C 277.704994 242.99274 279.775724 241.533846 281.886858 240.120384 C 283.992942 238.711971 286.13943 237.354038 288.311171 236.051634 C 290.487963 234.74923 292.695058 233.497307 294.932456 232.300913 C 297.169855 231.104519 299.432506 229.968701 301.72546 228.883365 C 304.023465 227.798028 306.341673 226.76822 308.685133 225.79899 C 311.028593 224.829759 313.392255 223.916057 315.78117 223.062932 C 318.170085 222.204759 320.579203 221.412211 323.003472 220.675191 C 325.432791 219.938172 327.877263 219.26173 330.336886 218.645864 C 332.796509 218.029999 335.271283 217.474711 337.76121 216.979999 C 340.246086 216.485287 342.746113 216.051153 345.256242 215.677595 C 347.76637 215.304037 350.281549 214.996105 352.80683 214.748749 C 355.33211 214.496345 357.85739 214.309566 360.392771 214.188412 C 362.928153 214.06221 365.463534 214.001634 367.998916 214.001634 C 370.534297 214.001634 373.069678 214.06221 375.60506 214.188412 C 378.140441 214.309566 380.665722 214.496345 383.191002 214.748749 C 385.716282 214.996105 388.231461 215.304037 390.74159 215.677595 C 393.251718 216.051153 395.751746 216.485287 398.236622 216.979999 C 400.726548 217.474711 403.201323 218.029999 405.660946 218.645864 C 408.120569 219.26173 410.56504 219.938172 412.99436 220.675191 C 415.418629 221.412211 417.827746 222.204759 420.216661 223.062932 C 422.605576 223.916057 424.969239 224.829759 427.312699 225.79899 C 429.656159 226.76822 431.979417 227.798028 434.272371 228.883365 C 436.565326 229.968701 438.827977 231.104519 441.065375 232.300913 C 443.302773 233.497307 445.509868 234.74923 447.68666 236.051634 C 449.858401 237.354038 452.004889 238.711971 454.110973 240.120384 C 456.222107 241.533846 458.292837 242.99274 460.333263 244.502115 C 462.368639 246.01149 464.368661 247.576394 466.328279 249.181683 C 468.292947 250.792019 470.21216 252.447789 472.090968 254.154039 C 473.969777 255.855241 475.808181 257.606923 477.60113 259.398991 C 479.394079 261.191058 481.141573 263.028558 482.848662 264.906443 C 484.550701 266.789376 486.207285 268.707645 487.813363 270.671347 C 489.424492 272.630001 490.985115 274.629039 492.495233 276.668463 C 494.005351 278.702838 495.464963 280.777597 496.87912 282.887694 C 498.288226 284.99779 499.641776 287.138174 500.944821 289.313896 C 502.252916 291.489617 503.500404 293.695627 504.697387 295.931925 C 505.89437 298.168223 507.030746 300.434809 508.116617 302.726636 C 509.202487 305.023512 510.227751 307.340579 511.202509 309.682887 C 512.172217 312.025194 513.081318 314.392743 513.939913 316.780483 C 514.793458 319.168224 515.586396 321.576156 516.323778 324.004281 C 517.061159 326.432406 517.737935 328.875676 518.354103 331.339137 C 518.970271 333.797551 519.525833 336.271109 520.020788 338.759811 C 520.515743 341.248513 520.950091 343.747311 521.323833 346.256205 C 521.692523 348.7651 522.005658 351.28409 522.253136 353.808129 C 522.500613 356.332167 522.687484 358.861254 522.813748 361.395388 C 522.934961 363.929523 523.000619 366.463658 523.000619 368.997792 Z M 523.000619 368.997792 " stroke="#f4ce14" stroke-width="70" stroke-opacity="1" stroke-miterlimit="4"/></g><g clip-path="url(#a74341ca59)"><path stroke-linecap="round" transform="matrix(0.773429, 0, 0, 0.773809, 90.242247, 58.12616)" fill="none" stroke-linejoin="miter" d="M 83.000835 583.975203 L 168.718948 539.001885 " stroke="#f4ce14" stroke-width="30" stroke-opacity="1" stroke-miterlimit="4"/></g><g clip-path="url(#21f69e2997)"><path stroke-linecap="round" transform="matrix(0.773429, 0, 0, 0.773809, 90.242247, 58.12616)" fill="none" stroke-linejoin="miter" d="M 652.719216 581.971117 L 567.001102 536.997798 " stroke="#f4ce14" stroke-width="30" stroke-opacity="1" stroke-miterlimit="4"/></g><g clip-path="url(#cec5fbeb8d)"><path stroke-linecap="round" transform="matrix(0.773429, 0, 0, 0.773809, 90.242247, 58.12616)" fill="none" stroke-linejoin="miter" d="M 15.000088 372.455725 L 111.142558 368.997792 " stroke="#f4ce14" stroke-width="30" stroke-opacity="1" stroke-miterlimit="4"/></g><g clip-path="url(#c87914684d)"><path stroke-linecap="round" transform="matrix(0.773429, 0, 0, 0.773809, 90.242247, 58.12616)" fill="none" stroke-linejoin="miter" d="M 623.996678 369.457168 L 720.144199 365.999235 " stroke="#f4ce14" stroke-width="30" stroke-opacity="1" stroke-miterlimit="4"/></g><g clip-path="url(#04ce92bd2b)"><path stroke-linecap="round" transform="matrix(0.773429, 0, 0, 0.773809, 90.242247, 58.12616)" fill="none" stroke-linejoin="miter" d="M 87.000879 155.999228 L 171.941206 202.507162 " stroke="#f4ce14" stroke-width="30" stroke-opacity="1" stroke-miterlimit="4"/></g><g clip-path="url(#8c0dcce600)"><path stroke-linecap="round" transform="matrix(0.773429, 0, 0, 0.773809, 90.242247, 58.12616)" fill="none" stroke-linejoin="miter" d="M 652.648508 156.963411 L 567.70313 203.471345 " stroke="#f4ce14" stroke-width="30" stroke-opacity="1" stroke-miterlimit="4"/></g><g clip-path="url(#514c11e484)"><path stroke-linecap="round" transform="matrix(0.773429, 0, 0, 0.773809, 90.242247, 58.12616)" fill="none" stroke-linejoin="miter" d="M 368.741348 114.059803 L 368.741348 15.001387 " stroke="#f4ce14" stroke-width="30" stroke-opacity="1" stroke-miterlimit="4"/></g><path stroke-linecap="butt" transform="matrix(0.773429, 0, 0, 0.773809, 90.242247, 58.12616)" fill-opacity="1" fill="#f5f5f5" fill-rule="nonzero" stroke-linejoin="miter" d="M 388.701163 344.024955 L 445.999773 365.499475 L 388.701163 386.973995 L 367.49891 445.001641 L 346.296657 386.973995 L 288.998048 365.499475 L 346.296657 344.024955 L 367.49891 286.002357 Z M 388.701163 344.024955 " stroke="#000000" stroke-width="1" stroke-opacity="1" stroke-miterlimit="4"/></svg>